# xmcd
#
# Track frame offsets:
#	150
#	15242
#	36735
#	48375
#	61477
#	74415
#	85230
#	97627
#	109822
#	120817
#	129742
#	141125
#	152670
#	165400
#	175327
#	188132
#	203107
#	217530
#	229662
#	241980
#
# Disc length: 3433 seconds
#
# Revision: 1
# Processed by: cddbd v1.4PL0 Copyright (c) Steve Scherf et al.
# Submitted via: audiograbber 1.82.01
#
DISCID=030d6714
DTITLE=Cacka Israelsson - 50
DYEAR=1995
DGENRE=
TTITLE0=Soldaten och kortleken
TTITLE1=I Rikeby och Lyckeby
TTITLE2=Hade jag en krona
TTITLE3=Barndomshemmet
TTITLE4=Fri som en vind
TTITLE5=Muskrat ramble
TTITLE6=Då går jag ned under källaren
TTITLE7=Gamle Spatten
TTITLE8=Country and western
TTITLE9=Skratta och var glad
TTITLE10=Ungkarlslyan
TTITLE11=Maria Maruschka
TTITLE12=Trogen som guld
TTITLE13=Än så länge hänger gamla gubben med
TTITLE14=Sången om Purfinland
TTITLE15=Innan vi gick i jeans så fanns New Orleans
TTITLE16=Röda sandens dal
TTITLE17=Lilla vackra Anna
TTITLE18=Åren de går
TTITLE19=Gamle Svarten
EXTD=
EXTT0=
EXTT1=
EXTT2=
EXTT3=
EXTT4=
EXTT5=
EXTT6=
EXTT7=
EXTT8=
EXTT9=
EXTT10=
EXTT11=
EXTT12=
EXTT13=
EXTT14=
EXTT15=
EXTT16=
EXTT17=
EXTT18=
EXTT19=
PLAYORDER=
